<?xml version="1.0" encoding="UTF-8"?>
<svg version="1.1" xmlns="http://www.w3.org/2000/svg" width="500" height="500">
<path d="M0 0 C165 0 330 0 500 0 C500 165 500 330 500 500 C335 500 170 500 0 500 C0 335 0 170 0 0 Z " fill="#EC5F59" transform="translate(0,0)"/>
<path d="M0 0 C2.26616009 0.03438365 4.52581065 0.12663773 6.79020309 0.22096443 C8.37197027 0.24337054 9.95382123 0.26044053 11.53570175 0.27241707 C15.68248046 0.31805479 19.82414505 0.43573006 23.96891403 0.56886482 C28.2048637 0.69204071 32.44164741 0.74651423 36.67887497 0.80690193 C44.98004015 0.9352732 53.27706225 1.13981837 61.57535934 1.39283943 C63.5348461 4.97554319 65.49274761 8.55911086 67.45035934 12.14283943 C68.00594528 13.15862068 68.56153122 14.17440193 69.13395309 15.22096443 C69.66891403 16.20065193 70.20387497 17.18033943 70.75504684 18.18971443 C71.24730759 19.09044685 71.73956833 19.99117928 72.24674606 20.91920662 C72.90440964 22.14365486 72.90440964 22.14365486 73.57535934 23.39283943 C73.96175583 24.11149178 74.34815231 24.83014412 74.74625778 25.57057381 C75.57535934 27.39283943 75.57535934 27.39283943 75.66129684 29.75221443 C73.95468417 33.90210712 70.70542962 35.96902366 67.20035934 38.64283943 C65.72623176 39.80147829 64.25227381 40.96033301 62.77848434 42.11940193 C61.69470505 42.96099861 61.69470505 42.96099861 60.58903122 43.81959724 C58.00383497 45.83936017 55.47547895 47.92365341 52.95035934 50.01783943 C48.9132938 53.32968362 44.81822665 56.55787052 40.70035934 59.76783943 C35.39385361 63.90634699 30.22837149 68.18221258 25.11222458 72.55299568 C21.53105928 75.6055414 17.88089951 78.52893414 14.14567184 81.38893318 C10.60157128 84.15203894 7.12165998 86.99179123 3.63785934 89.83033943 C-3.10747914 95.32518575 -9.88512617 100.77688134 -16.69026566 106.19752693 C-24.64357827 112.54437574 -32.53333393 118.96920399 -40.42464066 125.39283943 C-43.26658931 124.10285788 -45.30276009 122.75646357 -47.48323441 120.52955818 C-48.03430862 119.97203865 -48.58538284 119.41451912 -49.15315628 118.84010506 C-49.99910355 117.96902107 -49.99910355 117.96902107 -50.86214066 117.08033943 C-51.42223831 116.51121834 -51.98233597 115.94209724 -52.55940628 115.35573006 C-53.66272257 114.23438993 -54.76353639 113.11058125 -55.86165237 111.98414803 C-57.31426005 110.50522006 -58.79232794 109.05141774 -60.27229691 107.59987068 C-62.42464066 105.39283943 -62.42464066 105.39283943 -63.42464066 103.39283943 C-62.25984573 100.66920662 -62.25984573 100.66920662 -60.44417191 97.18971443 C-59.95876434 96.25248039 -59.95876434 96.25248039 -59.46355057 95.29631233 C-58.39603971 93.24089698 -57.31682574 91.19188243 -56.23714066 89.14283943 C-55.49032341 87.71161159 -54.74398899 86.28013172 -53.99812698 84.84840584 C-49.51374038 76.26249281 -44.9194066 67.74191665 -40.22786331 59.26735115 C-34.2954707 48.47234164 -28.75660499 37.46845831 -23.1851387 26.48414803 C-22.79124954 25.71083138 -22.39736038 24.93751472 -21.99153519 24.14076424 C-21.26076173 22.70600406 -20.53267245 21.26987119 -19.80818558 19.83192635 C-19.10776691 18.45875885 -18.38495277 17.09682417 -17.64215469 15.74611092 C-16.32816896 13.2993614 -16.32816896 13.2993614 -15.16135025 10.23488045 C-11.63222952 2.46876772 -8.64345222 0.12494201 0 0 Z " fill="#150C46" transform="translate(221.42464065551758,170.6071605682373)"/>
<path d="M0 0 C3.45793327 1.15264442 3.5629776 1.5011649 5.10961914 4.59155273 C5.49755142 5.35422958 5.8854837 6.11690643 6.28517151 6.9026947 C6.69766647 7.73789139 7.11016144 8.57308807 7.53515625 9.43359375 C7.97331161 10.29952652 8.41146698 11.16545929 8.86289978 12.05763245 C10.27212928 14.84631911 11.66796342 17.64144091 13.0625 20.4375 C14.88161388 24.06378326 16.70711757 27.68680259 18.53515625 31.30859375 C18.98428375 32.20250824 19.43341125 33.09642273 19.89614868 34.01742554 C23.35608685 40.8578477 27.02719013 47.5612399 30.91285706 54.16954041 C33.13729368 58.04109971 35.06696264 61.41505183 35 66 C33.27758789 68.51708984 33.27758789 68.51708984 30.72265625 70.9609375 C29.36430664 72.28544922 29.36430664 72.28544922 27.97851562 73.63671875 C27.00687845 74.54987093 26.03486834 75.46262644 25.0625 76.375 C24.0928185 77.30955867 23.12469895 78.2457409 22.15820312 79.18359375 C19.78703398 81.47218487 17.40111776 83.74291765 15 86 C11.90817313 84.50362991 9.41657924 82.8645848 6.75 80.6875 C5.87859375 79.97980469 5.0071875 79.27210938 4.109375 78.54296875 C3.62146484 78.14384277 3.13355469 77.7447168 2.63085938 77.33349609 C0.80385499 75.83961916 -1.02746952 74.35114376 -2.859375 72.86328125 C-4.94321496 71.1707506 -7.02694585 69.47808974 -9.10986328 67.78442383 C-17.34476744 61.08907181 -25.63861532 54.47390663 -34.00439453 47.94287109 C-37.72819715 45.02826502 -41.38067896 42.04351997 -45 39 C-43.68958049 36.0239076 -42.41357564 34.23483966 -39.8671875 32.22265625 C-39.23385498 31.71573242 -38.60052246 31.20880859 -37.94799805 30.68652344 C-37.26390869 30.1505957 -36.57981934 29.61466797 -35.875 29.0625 C-34.42041911 27.9025366 -32.96599654 26.74237463 -31.51171875 25.58203125 C-30.7645459 24.98986816 -30.01737305 24.39770508 -29.24755859 23.78759766 C-26.38581198 21.51150503 -23.54736868 19.20769428 -20.7121582 16.89868164 C-19.37005145 15.80580248 -18.02615569 14.71511637 -16.68041992 13.62670898 C-13.64201806 11.16762656 -10.62352069 8.69308611 -7.65625 6.1484375 C-6.6765625 5.31570312 -5.696875 4.48296875 -4.6875 3.625 C-3.84574219 2.89539063 -3.00398438 2.16578125 -2.13671875 1.4140625 C-1.07904297 0.71410156 -1.07904297 0.71410156 0 0 Z " fill="#150C46" transform="translate(301,210)"/>
<path d="M0 0 C2.20065867 0.83862226 3.4783426 1.75604269 5.21826172 3.33154297 C5.81034424 3.85844727 6.40242676 4.38535156 7.01245117 4.92822266 C7.63982178 5.49702148 8.26719238 6.06582031 8.91357422 6.65185547 C13.93913755 11.11656027 19.02499412 15.42488206 24.35107422 19.52685547 C31.27998935 24.88247302 37.85816357 30.56463791 44.03857422 36.77685547 C39.68300172 37.00200435 35.33064008 37.16383512 30.97094727 37.27124023 C29.49345833 37.31607106 28.01635864 37.37716786 26.5402832 37.45581055 C18.29495004 37.88359487 12.3593242 37.8536005 5.74560547 32.17919922 C4.92165283 31.33736084 4.0977002 30.49552246 3.2487793 29.62817383 C1.25953311 27.56588783 1.25953311 27.56588783 -0.99243164 27.74975586 C-3.51068092 29.06336711 -5.15745536 30.80784013 -7.17236328 32.80810547 C-14.04577859 38.46232886 -21.20432397 37.67148251 -29.58642578 37.27685547 C-31.08242331 37.23664222 -32.57852587 37.20015531 -34.07470703 37.16748047 C-37.70583007 37.08017781 -41.3329382 36.94262717 -44.96142578 36.77685547 C-36.75628344 28.53941611 -28.00083949 21.07888882 -18.96142578 13.77685547 C-17.02278232 12.1949224 -15.08526407 10.6116093 -13.14892578 9.02685547 C-12.24400391 8.29208984 -11.33908203 7.55732422 -10.40673828 6.80029297 C-8.39091182 5.13224487 -6.45840537 3.41135701 -4.52392578 1.65185547 C-1.96142578 -0.22314453 -1.96142578 -0.22314453 0 0 Z " fill="#180C44" transform="translate(247.96142578125,309.22314453125)"/>
<path d="M0 0 C2.475 0.99 2.475 0.99 5 2 C5 3.32 5 4.64 5 6 C5.33 5.34 5.66 4.68 6 4 C8.31 4 10.62 4 13 4 C13 4.99 13 5.98 13 7 C14.32 7.33 15.64 7.66 17 8 C16.34 8.33 15.68 8.66 15 9 C15.495 11.475 15.495 11.475 16 14 C13.98863724 11.44008376 12.37154504 8.95409701 11 6 C7.48584063 7.55276809 4.81419888 9.66567032 1.875 12.125 C-2.52554988 15.77850693 -6.96022407 19.37863964 -11.4375 22.9375 C-13.3056454 24.44112922 -15.15773104 25.96477587 -17 27.5 C-18.485 28.7375 -18.485 28.7375 -20 30 C-20.9075 30.763125 -21.815 31.52625 -22.75 32.3125 C-25 34 -25 34 -27 34 C-27.0928125 33.071875 -27.0928125 33.071875 -27.1875 32.125 C-27.828919 29.72238859 -27.828919 29.72238859 -30.5625 28.75 C-31.366875 28.5025 -32.17125 28.255 -33 28 C-29.50924319 24.42597743 -25.88892582 21.08962206 -22.0625 17.875 C-21.50981445 17.40852051 -20.95712891 16.94204102 -20.38769531 16.46142578 C-14.92762258 11.88383539 -9.32852618 7.48882648 -3.703125 3.1171875 C-1.78689558 1.63159732 -1.78689558 1.63159732 0 0 Z " fill="#E15F5D" transform="translate(292,205)"/>
<path d="M0 0 C1.06845406 -0.00021904 1.06845406 -0.00021904 2.15849304 -0.0004425 C4.51763941 0.00025528 6.87670724 0.00804142 9.23583984 0.01586914 C10.86965898 0.0177338 12.50347868 0.01915747 14.13729858 0.02015686 C18.44125914 0.0239783 22.74518605 0.03380541 27.0491333 0.04486084 C31.43948918 0.05508297 35.82985049 0.0596562 40.22021484 0.06469727 C48.8374178 0.075428 57.45459339 0.09249996 66.07177734 0.11352539 C69.94677734 6.86352539 69.94677734 6.86352539 71.07177734 9.11352539 C72.06177734 8.78352539 73.05177734 8.45352539 74.07177734 8.11352539 C73.96865234 9.08290039 73.86552734 10.05227539 73.75927734 11.05102539 C73.70494841 15.49694348 75.72081212 18.44753053 78.07568359 22.09790039 C79.07177734 24.11352539 79.07177734 24.11352539 78.07177734 27.11352539 C73.78177734 18.86352539 69.49177734 10.61352539 65.07177734 2.11352539 C41.64177734 2.11352539 18.21177734 2.11352539 -5.92822266 2.11352539 C-10.21822266 10.36352539 -14.50822266 18.61352539 -18.92822266 27.11352539 C-19.58822266 27.44352539 -20.24822266 27.77352539 -20.92822266 28.11352539 C-20.92822266 26.13352539 -20.92822266 24.15352539 -20.92822266 22.11352539 C-20.26822266 22.11352539 -19.60822266 22.11352539 -18.92822266 22.11352539 C-18.26822266 20.13352539 -17.60822266 18.15352539 -16.92822266 16.11352539 C-16.26822266 16.11352539 -15.60822266 16.11352539 -14.92822266 16.11352539 C-15.23759766 14.93790039 -15.23759766 14.93790039 -15.55322266 13.73852539 C-15.67697266 12.87227539 -15.80072266 12.00602539 -15.92822266 11.11352539 C-15.26822266 10.45352539 -14.60822266 9.79352539 -13.92822266 9.11352539 C-13.26822266 9.11352539 -12.60822266 9.11352539 -11.92822266 9.11352539 C-11.73486328 8.54762695 -11.54150391 7.98172852 -11.34228516 7.39868164 C-11.08189453 6.66520508 -10.82150391 5.93172852 -10.55322266 5.17602539 C-10.29798828 4.44512695 -10.04275391 3.71422852 -9.77978516 2.96118164 C-7.92279537 -1.06797509 -3.89830715 -0.00669812 0 0 Z " fill="#E0686D" transform="translate(217.92822265625,170.886474609375)"/>
<path d="M0 0 C23.43 0 46.86 0 71 0 C72.98 3.63 74.96 7.26 77 11 C76.67 11.66 76.34 12.32 76 13 C75.505 11.515 75.505 11.515 75 10 C74.34 10 73.68 10 73 10 C72.01 7.69 71.02 5.38 70 3 C46.9 2.67 23.8 2.34 0 2 C0 2.99 0 3.98 0 5 C-0.66 5 -1.32 5 -2 5 C-1.34 3.35 -0.68 1.7 0 0 Z " fill="#47193E" transform="translate(212,172)"/>
<path d="M0 0 C0.99 0.33 1.98 0.66 3 1 C1.68775452 4.93673644 0.08089673 7.22719294 -3 10 C-3.66 9.67 -4.32 9.34 -5 9 C-4.67 9.99 -4.34 10.98 -4 12 C-5.98 12 -7.96 12 -10 12 C-9.67 13.32 -9.34 14.64 -9 16 C-9.66 16 -10.32 16 -11 16 C-11 16.99 -11 17.98 -11 19 C-11.99 19 -12.98 19 -14 19 C-14.33 19.99 -14.66 20.98 -15 22 C-15.66 19.69 -16.32 17.38 -17 15 C-16.21625 14.236875 -15.4325 13.47375 -14.625 12.6875 C-11.92742283 10.09108195 -11.92742283 10.09108195 -10 7 C-7.42231591 5.45338955 -4.93050279 4.62796488 -2 4 C-2 3.34 -2 2.68 -2 2 C-1.34 2 -0.68 2 0 2 C0 1.34 0 0.68 0 0 Z " fill="#EC6059" transform="translate(287,211)"/>
<path d="M0 0 C1.98 0.99 1.98 0.99 4 2 C4.33 1.67 4.66 1.34 5 1 C5.99 0.67 6.98 0.34 8 0 C9 3 9 3 9 6 C10.65 6.33 12.3 6.66 14 7 C14.103125 7.61875 14.20625 8.2375 14.3125 8.875 C14.87525373 11.36526484 14.87525373 11.36526484 18 13 C18 13.66 18 14.32 18 15 C20.65017018 16.41973403 23.06645502 17.35828704 26 18 C27.33333333 18.33333333 28.66666667 18.66666667 30 19 C29.34 20.32 28.68 21.64 28 23 C28.721875 23.226875 29.44375 23.45375 30.1875 23.6875 C33.53209313 25.24831013 35.51603959 27.3031287 38 30 C37.67 30.66 37.34 31.32 37 32 C36.17757812 31.29875 35.35515625 30.5975 34.5078125 29.875 C29.3878324 25.51993259 24.26970725 21.17402555 19 17 C14.92864817 13.76706494 10.91931991 10.4671177 6.9375 7.125 C6.36451172 6.64804687 5.79152344 6.17109375 5.20117188 5.6796875 C1.1171138 2.23422759 1.1171138 2.23422759 0 0 Z " fill="#D25F68" transform="translate(248,308)"/>
<path d="M0 0 C4.95967085 2.68567157 9.07940098 6.26279174 13.375 9.875 C18.45351005 14.13700049 23.55116645 18.21888331 29 22 C27 23 27 23 24.4375 22.1875 C22 21 22 21 21 19 C20.401875 18.731875 19.80375 18.46375 19.1875 18.1875 C16.35963843 16.65237515 14.98641953 14.49904392 13 12 C12.01 11.67 11.02 11.34 10 11 C10 10.34 10 9.68 10 9 C9.360625 8.87625 8.72125 8.7525 8.0625 8.625 C7.381875 8.41875 6.70125 8.2125 6 8 C5.67 7.34 5.34 6.68 5 6 C2.47266765 5.34444881 2.47266765 5.34444881 0 5 C0 3.35 0 1.7 0 0 Z " fill="#CF5E68" transform="translate(267,258)"/>
<path d="M0 0 C0 0.99 0 1.98 0 3 C-0.99 3.33 -1.98 3.66 -3 4 C-4.10836423 5.88316159 -4.10836423 5.88316159 -5 8 C-5.99 9.485 -5.99 9.485 -7 11 C-7.99 11 -8.98 11 -10 11 C-9.34 12.98 -8.68 14.96 -8 17 C-9.98 17.99 -9.98 17.99 -12 19 C-12 17.35 -12 15.7 -12 14 C-12.598125 14.350625 -13.19625 14.70125 -13.8125 15.0625 C-16 16 -16 16 -19 15 C-18.04738281 14.25234375 -17.09476563 13.5046875 -16.11328125 12.734375 C-14.8463448 11.73959527 -13.57941824 10.74480293 -12.3125 9.75 C-11.68666016 9.25886719 -11.06082031 8.76773437 -10.41601562 8.26171875 C-6.93050167 5.52440413 -3.45561905 2.77506692 0 0 Z " fill="#E05F63" transform="translate(198,281)"/>
<path d="M0 0 C0.763125 0.20625 1.52625 0.4125 2.3125 0.625 C-0.10306126 3.81699167 -2.36753538 6.37216687 -5.6875 8.625 C-5.3575 9.945 -5.0275 11.265 -4.6875 12.625 C-6.3375 12.295 -7.9875 11.965 -9.6875 11.625 C-10.2409764 9.54946352 -10.6875 7.78134036 -10.6875 5.625 C-8.2125 6.12 -8.2125 6.12 -5.6875 6.625 C-5.7803125 5.449375 -5.7803125 5.449375 -5.875 4.25 C-5.813125 3.38375 -5.75125 2.5175 -5.6875 1.625 C-2.6875 -0.375 -2.6875 -0.375 0 0 Z " fill="#DA5F61" transform="translate(262.6875,238.375)"/>
<path d="M0 0 C0.99 0.33 1.98 0.66 3 1 C1.19266158 4.54592352 -0.6222555 8.0878487 -2.44433594 11.6262207 C-3.06330392 12.8308701 -3.68017785 14.03659782 -4.29492188 15.2434082 C-5.1780967 16.97628267 -6.06940215 18.70500577 -6.9609375 20.43359375 C-7.49509277 21.47572021 -8.02924805 22.51784668 -8.57958984 23.59155273 C-10 26 -10 26 -12 27 C-12 25.02 -12 23.04 -12 21 C-11.34 21 -10.68 21 -10 21 C-9.34 19.02 -8.68 17.04 -8 15 C-7.34 15 -6.68 15 -6 15 C-6.309375 13.824375 -6.309375 13.824375 -6.625 12.625 C-6.74875 11.75875 -6.8725 10.8925 -7 10 C-6.34 9.34 -5.68 8.68 -5 8 C-4.34 8 -3.68 8 -3 8 C-2.01 5.36 -1.02 2.72 0 0 Z " fill="#D36067" transform="translate(209,172)"/>
<path d="M0 0 C1.859375 0.24609375 1.859375 0.24609375 4 1 C5.265625 2.84765625 5.265625 2.84765625 6.25 5.0625 C6.75273437 6.16271484 6.75273437 6.16271484 7.265625 7.28515625 C7.50796875 7.85105469 7.7503125 8.41695312 8 9 C8.99 8.67 9.98 8.34 11 8 C10.8453125 9.4540625 10.8453125 9.4540625 10.6875 10.9375 C10.63317106 15.38341809 12.64903478 18.33400513 15.00390625 21.984375 C16 24 16 24 15 27 C14.61666504 26.25314941 14.23333008 25.50629883 13.83837891 24.73681641 C12.41384985 21.96586789 10.98592148 19.19670646 9.55566406 16.42871094 C8.93743291 15.23052317 8.32056029 14.03163343 7.70507812 12.83203125 C6.81998756 11.10753221 5.92959458 9.38575785 5.0390625 7.6640625 C4.50490723 6.62717285 3.97075195 5.5902832 3.42041016 4.52197266 C2.10978154 1.93037635 2.10978154 1.93037635 0 0 Z " fill="#D46369" transform="translate(281,171)"/>
<path d="M0 0 C1.78515625 0.8515625 1.78515625 0.8515625 2.78515625 2.8515625 C1.13515625 2.8515625 -0.51484375 2.8515625 -2.21484375 2.8515625 C-2.54484375 4.1715625 -2.87484375 5.4915625 -3.21484375 6.8515625 C-4.20484375 6.8515625 -5.19484375 6.8515625 -6.21484375 6.8515625 C-6.21484375 7.5115625 -6.21484375 8.1715625 -6.21484375 8.8515625 C-7.20484375 8.8515625 -8.19484375 8.8515625 -9.21484375 8.8515625 C-9.54484375 9.5115625 -9.87484375 10.1715625 -10.21484375 10.8515625 C-12.19373336 11.57850154 -14.19438933 12.24972501 -16.21484375 12.8515625 C-14.57181876 11.1555367 -12.90759523 9.49750979 -11.21484375 7.8515625 C-10.49039063 7.14257812 -9.7659375 6.43359375 -9.01953125 5.703125 C-8.23835937 4.96835937 -7.4571875 4.23359375 -6.65234375 3.4765625 C-5.90855469 2.76757812 -5.16476563 2.05859375 -4.3984375 1.328125 C-2.21484375 -0.1484375 -2.21484375 -0.1484375 0 0 Z " fill="#210A3B" transform="translate(248.21484375,309.1484375)"/>
<path d="M0 0 C1.32 0.66 2.64 1.32 4 2 C3.01 2.495 3.01 2.495 2 3 C1.34 2.67 0.68 2.34 0 2 C-0.33 3.65 -0.66 5.3 -1 7 C-2.32 6.67 -3.64 6.34 -5 6 C-5 6.66 -5 7.32 -5 8 C-5.66 8 -6.32 8 -7 8 C-6.67 8.99 -6.34 9.98 -6 11 C-7.32 11.33 -8.64 11.66 -10 12 C-10 12.33 -10 12.66 -10 13 C-11.65 13 -13.3 13 -15 13 C-10.43369266 8.12927217 -5.25023461 4.10843602 0 0 Z " fill="#CC5E64" transform="translate(292,205)"/>
<path d="M0 0 C0.33 0.99 0.66 1.98 1 3 C1.99 3 2.98 3 4 3 C4.12375 3.639375 4.2475 4.27875 4.375 4.9375 C4.684375 5.9584375 4.684375 5.9584375 5 7 C5.66 7.33 6.32 7.66 7 8 C7 9.32 7 10.64 7 12 C3.05860922 10.33248852 0.2107188 7.77289351 -3 5 C-1.125 1.125 -1.125 1.125 0 0 Z " fill="#290E40" transform="translate(259,244)"/>
<path d="M0 0 C0 0.99 0 1.98 0 3 C-0.99 3.66 -1.98 4.32 -3 5 C-3.33 5.99 -3.66 6.98 -4 8 C-4.71542969 8.08121094 -5.43085938 8.16242188 -6.16796875 8.24609375 C-9.6578308 9.1751191 -11.55784089 10.74858634 -14.3125 13.0625 C-15.19550781 13.79597656 -16.07851562 14.52945313 -16.98828125 15.28515625 C-17.98408203 16.13400391 -17.98408203 16.13400391 -19 17 C-19.66 16.67 -20.32 16.34 -21 16 C-18.95857689 14.27054511 -16.91686798 12.54142952 -14.875 10.8125 C-14.30523437 10.32974609 -13.73546875 9.84699219 -13.1484375 9.34960938 C-12.00237726 8.37936519 -10.85491337 7.41077659 -9.70605469 6.44384766 C-8.56439471 5.47765174 -7.4296244 4.50325828 -6.30175781 3.52099609 C-2.21566358 0 -2.21566358 0 0 0 Z " fill="#CB6169" transform="translate(259,233)"/>
<path d="M0 0 C2.77585605 3.41841532 4.77483662 7.14875034 6.75 11.0625 C7.07871094 11.68705078 7.40742188 12.31160156 7.74609375 12.95507812 C8.57749772 14.59859188 9.29674412 16.29770708 10 18 C9.67 18.99 9.34 19.98 9 21 C9 20.34 9 19.68 9 19 C8.01 19 7.02 19 6 19 C5.67 16.36 5.34 13.72 5 11 C4.34 11 3.68 11 3 11 C3 9.68 3 8.36 3 7 C2.01 7.33 1.02 7.66 0 8 C0 5.36 0 2.72 0 0 Z " fill="#2E0D39" transform="translate(326,255)"/>
<path d="M0 0 C0 0.99 0 1.98 0 3 C-0.66 3.66 -1.32 4.32 -2 5 C-2.45375 5.495 -2.9075 5.99 -3.375 6.5 C-5 8 -5 8 -7 8.9375 C-9.44973532 10.23892189 -10.54028724 11.66445958 -12 14 C-12 14.66 -12 15.32 -12 16 C-13.65 15.67 -15.3 15.34 -17 15 C-13.41157029 11.30504919 -9.66828129 7.95241783 -5.6875 4.6875 C-5.13771484 4.23310547 -4.58792969 3.77871094 -4.02148438 3.31054688 C-2.68287784 2.20474148 -1.34170769 1.10204061 0 0 Z " fill="#D16168" transform="translate(276,218)"/>
<path d="M0 0 C2.31 0 4.62 0 7 0 C7 0.99 7 1.98 7 3 C8.32 3.33 9.64 3.66 11 4 C10.01 4.495 10.01 4.495 9 5 C9.33 6.65 9.66 8.3 10 10 C7.98863724 7.44008376 6.37154504 4.95409701 5 2 C4.4225 2.28875 3.845 2.5775 3.25 2.875 C1.16666667 3.91666667 -0.91666667 4.95833333 -3 6 C-3.33 4.68 -3.66 3.36 -4 2 C-3.01 2 -2.02 2 -1 2 C-0.67 1.34 -0.34 0.68 0 0 Z " fill="#D76165" transform="translate(298,209)"/>
<path d="M0 0 C0.226875 0.639375 0.45375 1.27875 0.6875 1.9375 C1.120625 2.618125 1.55375 3.29875 2 4 C2.78375 4.12375 3.5675 4.2475 4.375 4.375 C7 5 7 5 9.3125 8.0625 C9.869375 9.031875 10.42625 10.00125 11 11 C10.67 11.66 10.34 12.32 10 13 C8.15798847 11.57363718 6.32659413 10.13355368 4.5 8.6875 C3.4790625 7.88699219 2.458125 7.08648437 1.40625 6.26171875 C0.6121875 5.51535156 -0.181875 4.76898438 -1 4 C-1 1 -1 1 0 0 Z " fill="#260C37" transform="translate(277,261)"/>
<path d="M0 0 C3 1 3 1 4.6875 3.9375 C6 7 6 7 6 9 C5.34 9 4.68 9 4 9 C3.34 7.68 2.68 6.36 2 5 C1.01 5.66 0.02 6.32 -1 7 C-1.66 5.68 -2.32 4.36 -3 3 C-2.01 2.01 -1.02 1.02 0 0 Z " fill="#2F0B3A" transform="translate(301,210)"/>
<path d="M0 0 C0.33 1.32 0.66 2.64 1 4 C-0.32 4 -1.64 4 -3 4 C-3 4.99 -3 5.98 -3 7 C-4.32 7.33 -5.64 7.66 -7 8 C-7 8.66 -7 9.32 -7 10 C-8.98 10.66 -10.96 11.32 -13 12 C-9.48451346 6.95604105 -4.88263123 3.62024153 0 0 Z " fill="#290B38" transform="translate(222,329)"/>
<path d="M0 0 C1 2 1 2 0.5 3.9375 C-1.69574969 6.95665582 -4.60224973 7.60449542 -8 9 C-8.99 10.485 -8.99 10.485 -10 12 C-11.32 11.67 -12.64 11.34 -14 11 C-12.41728767 9.72839334 -10.83380365 8.45774715 -9.25 7.1875 C-8.36828125 6.47980469 -7.4865625 5.77210938 -6.578125 5.04296875 C-4.41007071 3.32494998 -2.22271099 1.64626024 0 0 Z " fill="#CE5F66" transform="translate(213,269)"/>
<path d="M0 0 C-0.99 1.32 -1.98 2.64 -3 4 C-5.62187494 2.95125002 -6.79371361 2.35068687 -8.25 -0.125 C-8.4975 -0.74375 -8.745 -1.3625 -9 -2 C-5.08496436 -3.59501452 -3.33516624 -2.31608767 0 0 Z " fill="#2A0E3B" transform="translate(184,292)"/>
<path d="M0 0 C1.75 1.4375 1.75 1.4375 3 3 C1.37660195 4.70884005 -0.29319053 6.37446717 -2 8 C-2.66 8 -3.32 8 -4 8 C-4 5.69 -4 3.38 -4 1 C-2.1875 0.3125 -2.1875 0.3125 0 0 Z " fill="#DB5D5E" transform="translate(206,337)"/>
<path d="M0 0 C4.63708939 2.60836278 8.78744458 5.77002574 13 9 C11.68 9.33 10.36 9.66 9 10 C8.67 9.01 8.34 8.02 8 7 C6.68 7.33 5.36 7.66 4 8 C4 7.01 4 6.02 4 5 C3.34 5 2.68 5 2 5 C2 4.01 2 3.02 2 2 C1.34 2 0.68 2 0 2 C0 1.34 0 0.68 0 0 Z " fill="#2D0C3D" transform="translate(264,323)"/>
<path d="M0 0 C0.66 0.66 1.32 1.32 2 2 C1.625 5.125 1.625 5.125 1 8 C0.01 8.33 -0.98 8.66 -2 9 C-2.33 9.66 -2.66 10.32 -3 11 C-3.66 11 -4.32 11 -5 11 C-3.77472971 6.94718288 -2.30119506 3.55639236 0 0 Z " fill="#2A0E3B" transform="translate(165,261)"/>
<path d="M0 0 C4.52615993 3.67832017 8.39424999 7.41086363 12 12 C11.443125 11.71125 10.88625 11.4225 10.3125 11.125 C7.98947835 9.91932647 7.98947835 9.91932647 5.3125 9.1875 C4.1678125 8.5996875 4.1678125 8.5996875 3 8 C2.1875 5.375 2.1875 5.375 2 3 C1.01 2.67 0.02 2.34 -1 2 C-0.67 1.34 -0.34 0.68 0 0 Z " fill="#D15F69" transform="translate(163,280)"/>
<path d="M0 0 C3.98175544 2.10148204 6.35039045 4.36905358 9 8 C6.36 8 3.72 8 1 8 C1.33 6.02 1.66 4.04 2 2 C1.34 2 0.68 2 0 2 C0 1.34 0 0.68 0 0 Z " fill="#1F0A3C" transform="translate(281,337)"/>
<path d="M0 0 C2 0.3125 2 0.3125 4 1 C4.33 1.66 4.66 2.32 5 3 C4.34 3 3.68 3 3 3 C2.67 3.99 2.34 4.98 2 6 C2 5.34 2 4.68 2 4 C-0.64 4.66 -3.28 5.32 -6 6 C-4 4 -2 2 0 0 Z " fill="#D65E65" transform="translate(246,336)"/>
<path d="M0 0 C0.99 0.66 1.98 1.32 3 2 C0.36 4.31 -2.28 6.62 -5 9 C-5.33 7.68 -5.66 6.36 -6 5 C-4.02 3.35 -2.04 1.7 0 0 Z " fill="#D45D61" transform="translate(225,323)"/>
<path d="M0 0 C0 0.99 0 1.98 0 3 C-0.99 3.33 -1.98 3.66 -3 4 C-4.10836423 5.88316159 -4.10836423 5.88316159 -5 8 C-5.99 9.485 -5.99 9.485 -7 11 C-9.625 11.1875 -9.625 11.1875 -12 11 C-8.19588166 7.08060535 -4.18423892 3.50897269 0 0 Z " fill="#CF6169" transform="translate(198,281)"/>
<path d="M0 0 C3.05001831 3.66002197 7 9.07851471 7 14 C6.34 14 5.68 14 5 14 C1.2140036 9.8985039 0 5.49729236 0 0 Z " fill="#350C39" transform="translate(314,232)"/>
<path d="M0 0 C0.66 0.33 1.32 0.66 2 1 C1.01 2.485 1.01 2.485 0 4 C-0.66 4 -1.32 4 -2 4 C-2.103125 4.639375 -2.20625 5.27875 -2.3125 5.9375 C-2.539375 6.618125 -2.76625 7.29875 -3 8 C-3.99 8.33 -4.98 8.66 -6 9 C-6.66 8.34 -7.32 7.68 -8 7 C-5.36 4.69 -2.72 2.38 0 0 Z " fill="#270D3C" transform="translate(285,223)"/>
<path d="M0 0 C2 2 2 2 2 4.375 C0.6042509 8.03884139 -1.67734418 9.09124027 -5 11 C-5 9.35 -5 7.7 -5 6 C-4.01 6.495 -4.01 6.495 -3 7 C-2.01 4.69 -1.02 2.38 0 0 Z " fill="#2E0F3C" transform="translate(295,196)"/>
<path d="M0 0 C1.98 0.99 1.98 0.99 4 2 C4.33 1.67 4.66 1.34 5 1 C5.99 0.67 6.98 0.34 8 0 C9 3 9 3 9 6 C8.01 6.495 8.01 6.495 7 7 C5.83040013 6.02433888 4.66438823 5.044375 3.5 4.0625 C2.8503125 3.51722656 2.200625 2.97195313 1.53125 2.41015625 C1.0259375 1.94480469 0.520625 1.47945313 0 1 C0 0.67 0 0.34 0 0 Z " fill="#DB6263" transform="translate(248,308)"/>
<path d="M0 0 C3.27525811 1.05964233 5.61381469 2.39278645 8.1875 4.625 C10.64115354 7.21506027 10.64115354 7.21506027 13 7 C13.33 7.99 13.66 8.98 14 10 C9.83878671 10 8.46553396 8.20445395 5.3125 5.5625 C4.31863281 4.73878906 3.32476562 3.91507812 2.30078125 3.06640625 C1.54152344 2.38449219 0.78226562 1.70257813 0 1 C0 0.67 0 0.34 0 0 Z " fill="#350C3B" transform="translate(298,282)"/>
<path d="M0 0 C0.33 0.66 0.66 1.32 1 2 C0.67 2.66 0.34 3.32 0 4 C-0.99 4 -1.98 4 -3 4 C-3 4.99 -3 5.98 -3 7 C-4.65 7.66 -6.3 8.32 -8 9 C-8 8.01 -8 7.02 -8 6 C-6.25 4.39453125 -6.25 4.39453125 -4 2.8125 C-3.2575 2.28269531 -2.515 1.75289063 -1.75 1.20703125 C-1.1725 0.80871094 -0.595 0.41039062 0 0 Z " fill="#D45F62" transform="translate(223,261)"/>
<path d="M0 0 C2 0.3125 2 0.3125 4 1 C4.33 1.66 4.66 2.32 5 3 C3.35 3 1.7 3 0 3 C-0.33 4.32 -0.66 5.64 -1 7 C-2.65 6.67 -4.3 6.34 -6 6 C-4 4 -2 2 0 0 Z " fill="#2F0D36" transform="translate(246,309)"/>
<path d="M0 0 C3.79588866 0.54226981 5.47211993 2.20127563 8 5 C7.01 5.495 7.01 5.495 6 6 C6 5.34 6 4.68 6 4 C3.69 4 1.38 4 -1 4 C-1.33 3.34 -1.66 2.68 -2 2 C-1.34 2 -0.68 2 0 2 C0 1.34 0 0.68 0 0 Z " fill="#DA5E5F" transform="translate(294,281)"/>
<path d="M0 0 C0.33 0 0.66 0 1 0 C1.61528766 5.07612318 -0.38341651 7.82982006 -3 12 C-3.66 12 -4.32 12 -5 12 C-3.68938409 7.76570244 -2.05643741 3.92592596 0 0 Z " fill="#2D0C38" transform="translate(202,190)"/>
<path d="M0 0 C0.66 0.33 1.32 0.66 2 1 C-1.96 4.465 -1.96 4.465 -6 8 C-6.66 7.01 -7.32 6.02 -8 5 C-6.68 5 -5.36 5 -4 5 C-3.8453125 4.0409375 -3.8453125 4.0409375 -3.6875 3.0625 C-3.460625 2.381875 -3.23375 1.70125 -3 1 C-2.01 0.67 -1.02 0.34 0 0 Z " fill="#320C37" transform="translate(271,220)"/>
<path d="M0 0 C0.33 0.99 0.66 1.98 1 3 C-1.64 5.31 -4.28 7.62 -7 10 C-7.66 9.67 -8.32 9.34 -9 9 C-6.03 6.03 -3.06 3.06 0 0 Z " fill="#D6636D" transform="translate(328,283)"/>
<path d="M0 0 C1.65 0 3.3 0 5 0 C4.75 1.875 4.75 1.875 4 4 C1.9375 5.25 1.9375 5.25 0 6 C0 4.02 0 2.04 0 0 Z " fill="#250C41" transform="translate(229,250)"/>
<path d="M0 0 C0 0.99 0 1.98 0 3 C-0.99 3.66 -1.98 4.32 -3 5 C-3.33 5.99 -3.66 6.98 -4 8 C-4.99 7.67 -5.98 7.34 -7 7 C-3.86206897 0 -3.86206897 0 0 0 Z " fill="#D56063" transform="translate(259,233)"/>
<path d="M0 0 C1.67542976 0.28604898 3.34385343 0.61781233 5 1 C3.3545622 2.68762851 1.68711423 4.3540349 0 6 C-0.33 6 -0.66 6 -1 6 C-1.042721 4.33388095 -1.04063832 2.66617115 -1 1 C-0.67 0.67 -0.34 0.34 0 0 Z " fill="#D75E63" transform="translate(241,308)"/>
<path d="M0 0 C0 3.5747073 -0.55352838 4.46916729 -3 7 C-5.6875 7.75 -5.6875 7.75 -8 8 C-5.58443874 4.80800833 -3.31996462 2.25283313 0 0 Z " fill="#2E0B3C" transform="translate(295,215)"/>
<path d="M0 0 C1.32 0.66 2.64 1.32 4 2 C3.01 2.495 3.01 2.495 2 3 C1.34 2.67 0.68 2.34 0 2 C-0.33 3.65 -0.66 5.3 -1 7 C-1.99 6.67 -2.98 6.34 -4 6 C-1.125 1.125 -1.125 1.125 0 0 Z " fill="#DE6364" transform="translate(292,205)"/>
<path d="M0 0 C-4.75 4.875 -4.75 4.875 -7 6 C-7 4.35 -7 2.7 -7 1 C-4.53721199 -0.231394 -2.7204945 -0.07159196 0 0 Z " fill="#D56167" transform="translate(217,333)"/>
<path d="M0 0 C0.598125 0.20625 1.19625 0.4125 1.8125 0.625 C-1.1575 3.1 -1.1575 3.1 -4.1875 5.625 C-4.5175 4.305 -4.8475 2.985 -5.1875 1.625 C-2.1875 -0.375 -2.1875 -0.375 0 0 Z " fill="#280A39" transform="translate(193.1875,283.375)"/>
<path d="M0 0 C0.66 0.33 1.32 0.66 2 1 C0.68 2.65 -0.64 4.3 -2 6 C-5.875 4.25 -5.875 4.25 -7 2 C-6.030625 1.855625 -5.06125 1.71125 -4.0625 1.5625 C-1.13513227 1.32437659 -1.13513227 1.32437659 0 0 Z " fill="#1E093B" transform="translate(277,257)"/>
<path d="M0 0 C0.99 0.33 1.98 0.66 3 1 C2.67 2.65 2.34 4.3 2 6 C0.68 5.67 -0.64 5.34 -2 5 C-1.34 3.35 -0.68 1.7 0 0 Z " fill="#D45B65" transform="translate(297,198)"/>
<path d="M0 0 C1.32 0.66 2.64 1.32 4 2 C1.03 4.475 1.03 4.475 -2 7 C-2.33 6.01 -2.66 5.02 -3 4 C-2.01 4 -1.02 4 0 4 C0 2.68 0 1.36 0 0 Z " fill="#300C36" transform="translate(252,233)"/>
<path d="M0 0 C0.66 0 1.32 0 2 0 C2.33 1.98 2.66 3.96 3 6 C2.34 5.67 1.68 5.34 1 5 C0.01 5.33 -0.98 5.66 -2 6 C-1.34 4.02 -0.68 2.04 0 0 Z " fill="#220B3A" transform="translate(179,234)"/>
<path d="M0 0 C2.11180592 2.57089417 3.66306057 4.63060567 4 8 C3.34 8.66 2.68 9.32 2 10 C2 9.01 2 8.02 2 7 C1.34 6.67 0.68 6.34 0 6 C0 4.02 0 2.04 0 0 Z " fill="#3B1241" transform="translate(291,188)"/>
<path d="M0 0 C2.97 0.495 2.97 0.495 6 1 C4.35 2.65 2.7 4.3 1 6 C0.67 4.02 0.34 2.04 0 0 Z " fill="#290D3D" transform="translate(236,338)"/>
<path d="M0 0 C-0.33 0.99 -0.66 1.98 -1 3 C-1.66 3 -2.32 3 -3 3 C-3.33 3.99 -3.66 4.98 -4 6 C-5.32 5.67 -6.64 5.34 -8 5 C-2.25 0 -2.25 0 0 0 Z " fill="#D15E61" transform="translate(238,250)"/>
</svg>
